# File produced by Open Asset Import Library (http://www.assimp.sf.net)
# (assimp v3.1.197435470)

mtllib ShipPainting.mtl

# 48 vertex positions
v  0.311823 41.7449 0.0321698
v  32.0287 41.6737 -0.158772
v  32.0998 41.7449 0.0321699
v  0.382962 41.6737 -0.158772
v  32.3568 42.0019 0.0564184
v  0.0548306 42.0019 0.0564184
v  32.4353 42.0804 -0.0756434
v  -0.0236607 42.0804 -0.0756434
v  33.0005 42.6456 -0.00594326
v  -0.588898 42.6456 -0.00594326
v  33.3278 42.9729 0.207328
v  -0.916161 42.9729 0.207328
v  33.4915 43.1366 -0.0132787
v  -1.07989 43.1366 -0.0132787
v  33.6678 43.3128 -0.0132787
v  -1.25614 43.3128 -0.0132787
v  34.0099 43.655 0.247051
v  -1.5983 43.655 0.247051
v  34.1839 43.829 -0.0132786
v  -1.77231 43.829 -0.0132786
v  34.2994 43.9445 -0.0896602
v  -1.88776 43.9445 -0.0896602
v  34.3476 43.9927 -0.315304
v  -1.93597 43.9927 -0.315304
v  0.382962 27.469 -0.158774
v  0.311823 27.3978 0.0321675
v  0.0548306 27.1408 0.056416
v  -0.0236607 27.0624 -0.0756458
v  -0.588898 26.4971 -0.00594589
v  -0.916161 26.1699 0.207325
v  -1.07989 26.0061 -0.0132815
v  -1.25614 25.8299 -0.0132816
v  -1.5983 25.4877 0.247048
v  -1.77231 25.3137 -0.0132816
v  -1.88776 25.1982 -0.0896633
v  -1.93597 25.15 -0.315307
v  32.0998 27.3978 0.0321675
v  32.0287 27.469 -0.158774
v  32.3568 27.1408 0.056416
v  32.4353 27.0624 -0.0756458
v  33.0005 26.4971 -0.00594589
v  33.3278 26.1699 0.207325
v  33.4915 26.0061 -0.0132815
v  33.6678 25.8299 -0.0132815
v  34.0099 25.4877 0.247048
v  34.1839 25.3137 -0.0132816
v  34.2994 25.1982 -0.0896632
v  34.3476 25.15 -0.315307

# 100 UV coordinates
vt 0.0946426 0.879853 0
vt 0.574554 0.870581 0
vt 0.581028 0.879853 0
vt 0.0978379 0.870581 0
vt 0.587502 0.889125 0
vt 0.0914473 0.889125 0
vt 0.593976 0.898397 0
vt 0.088252 0.898397 0
vt 0.600449 0.907498 0
vt 0.0850566 0.907841 0
vt 0.606923 0.916942 0
vt 0.0818613 0.916942 0
vt 0.613397 0.926214 0
vt 0.078666 0.926214 0
vt 0.619871 0.935389 0
vt 0.0754707 0.935585 0
vt 0.626344 0.944759 0
vt 0.0722753 0.944759 0
vt 0.632818 0.954031 0
vt 0.06908 0.954031 0
vt 0.639292 0.963279 0
vt 0.0658847 0.963328 0
vt 0.645765 0.972576 0
vt 0.0626895 0.972576 0
vt 0.317085 0.659399 0
vt 0.0936365 0.651663 0
vt 0.313245 0.651663 0
vt 0.0903688 0.659512 0
vt 0.320926 0.667197 0
vt 0.0871012 0.6673 0
vt 0.324767 0.674996 0
vt 0.0838335 0.675087 0
vt 0.328607 0.682795 0
vt 0.0805659 0.682875 0
vt 0.332448 0.690594 0
vt 0.0772982 0.690661 0
vt 0.336288 0.698392 0
vt 0.0740305 0.698449 0
vt 0.340129 0.706191 0
vt 0.0707629 0.706236 0
vt 0.34397 0.713989 0
vt 0.0674952 0.714024 0
vt 0.34781 0.721788 0
vt 0.0642276 0.721811 0
vt 0.351651 0.729587 0
vt 0.0609599 0.729598 0
vt 0.355491 0.737386 0
vt 0.0576923 0.737386 0
vt 0.589433 0.847796 0
vt 0.109521 0.857069 0
vt 0.103048 0.847796 0
vt 0.586238 0.857069 0
vt 0.0965739 0.838524 0
vt 0.592629 0.838524 0
vt 0.0901 0.829449 0
vt 0.595824 0.829055 0
vt 0.0836264 0.819979 0
vt 0.599019 0.819979 0
vt 0.0771526 0.810707 0
vt 0.602214 0.810707 0
vt 0.0706789 0.801558 0
vt 0.60541 0.801312 0
vt 0.0642052 0.792261 0
vt 0.608605 0.792064 0
vt 0.0577314 0.782964 0
vt 0.6118 0.782816 0
vt 0.0512577 0.773667 0
vt 0.614995 0.773569 0
vt 0.0447841 0.76437 0
vt 0.618191 0.764321 0
vt 0.0383102 0.755073 0
vt 0.621386 0.755073 0
vt 0.0960987 0.64283 0
vt 0.319548 0.650504 0
vt 0.0999393 0.650629 0
vt 0.322815 0.642716 0
vt 0.326083 0.634929 0
vt 0.092258 0.635031 0
vt 0.0884174 0.627232 0
vt 0.32935 0.627142 0
vt 0.332618 0.619355 0
vt 0.0845767 0.619434 0
vt 0.335886 0.611567 0
vt 0.0807361 0.611635 0
vt 0.0768954 0.603836 0
vt 0.339153 0.60378 0
vt 0.342421 0.595992 0
vt 0.0730547 0.596038 0
vt 0.345689 0.588205 0
vt 0.0692142 0.588239 0
vt 0.0653735 0.58044 0
vt 0.348956 0.580417 0
vt 0.352223 0.57263 0
vt 0.0615329 0.572642 0
vt 0.0576923 0.564843 0
vt 0.355491 0.564843 0
vt 0.978838 0.445478 0
vt 0.0172304 0.445478 0
vt 0.0172304 0.0138422 0
vt 0.978838 0.0138422 0

# 76 vertex normals
vn -2.52186e-10 -0.937076 0.349127
vn -2.52186e-10 -0.937075 0.349127
vn -5.77019e-10 -0.0939382 0.995578
vn -6.52928e-09 0.859629 0.510918
vn -6.52928e-09 0.859629 0.510918
vn -6.52928e-09 0.859629 0.510918
vn 3.6168e-10 -0.445396 0.895334
vn 3.6168e-10 -0.445396 0.895334
vn 7.67522e-10 -0.122384 0.992483
vn 7.67522e-10 -0.122384 0.992483
vn 2.10887e-10 -0.545977 0.8378
vn 3.94103e-10 0.803014 0.59596
vn 3.94103e-10 0.803014 0.59596
vn 4.54825e-10 -0.467164 0.884171
vn 4.55642e-10 -1.73489e-07 1
vn 4.29966e-10 -0.605504 0.795842
vn 7.10876e-10 0.652203 0.758044
vn 4.98726e-10 0.831386 0.555695
vn 4.19719e-10 0.895847 0.444362
vn 4.19719e-10 0.895847 0.444362
vn 1.94935e-10 0.977933 0.20892
vn 0.937075 -5.63197e-08 0.349127
vn 0.0939379 -1.60903e-07 0.995578
vn 0.0939379 -1.60903e-07 0.995578
vn -0.859627 -8.2631e-08 0.510921
vn 0.445397 -1.45963e-07 0.895333
vn 0.122384 -1.61224e-07 0.992483
vn 0.545978 -1.36784e-07 0.8378
vn -0.803012 -9.78938e-08 0.595962
vn -0.803012 -9.78938e-08 0.595962
vn 0.467163 -1.45047e-07 0.884171
vn 1.05681e-08 -1.63836e-07 1
vn 0.605503 -1.30631e-07 0.795843
vn -0.652205 -1.24817e-07 0.758043
vn -0.831386 -9.15072e-08 0.555695
vn -0.89585 -7.31746e-08 0.444357
vn -0.977933 -3.44126e-08 0.208916
vn 2.52186e-10 0.937075 0.349127
vn 2.52186e-10 0.937075 0.349127
vn 5.77019e-10 0.0939379 0.995578
vn 2.80829e-10 -0.85963 0.510917
vn 2.80829e-10 -0.85963 0.510917
vn -1.07438e-10 0.445395 0.895334
vn 1.9807e-10 0.122384 0.992483
vn -2.10887e-10 0.545977 0.8378
vn -3.94103e-10 -0.803014 0.59596
vn -3.94103e-10 -0.803014 0.59596
vn -4.54825e-10 0.467164 0.884171
vn -4.55642e-10 -1.52353e-07 1
vn -4.29966e-10 0.605504 0.795842
vn -7.10876e-10 -0.652203 0.758044
vn -4.98726e-10 -0.831386 0.555695
vn -4.19719e-10 -0.895847 0.444362
vn -4.19719e-10 -0.895847 0.444362
vn -1.94935e-10 -0.977933 0.20892
vn -0.937075 -5.74402e-08 0.349127
vn -0.0939379 -1.63497e-07 0.995578
vn -0.0939379 -1.63497e-07 0.995578
vn 0.85963 -2.88635e-08 0.510917
vn 0.85963 -2.88635e-08 0.510917
vn 0.85963 -2.88635e-08 0.510917
vn -0.445397 -1.47666e-07 0.895333
vn -0.122384 -1.69356e-07 0.992483
vn -0.445397 -1.47666e-07 0.895333
vn -0.122384 -1.69356e-07 0.992483
vn -0.545978 -1.36205e-07 0.8378
vn 0.803012 -9.62954e-08 0.595962
vn 0.803012 -9.62954e-08 0.595962
vn -0.467163 -1.43053e-07 0.884171
vn -1.05681e-08 -1.62006e-07 1
vn -0.605503 -1.28687e-07 0.795843
vn 0.652205 -1.22185e-07 0.758043
vn 0.831386 -8.95613e-08 0.555695
vn 0.89585 -7.16154e-08 0.444357
vn 0.977933 -3.3661e-08 0.208916
vn 0 -1.62921e-07 1

# Mesh 'BoatPainting_low_BoatPainting_low' with 90 faces
g BoatPainting_low_BoatPainting_low
usemtl DefaultMaterial
f  1/1/1 2/2/2 3/3/1
f  2/2/2 1/1/1 4/4/2
f  5/5/3 6/6/3 3/3/3
f  3/3/3 6/6/3 1/1/3
f  7/7/4 6/6/5 5/5/6
f  6/6/5 7/7/4 8/8/6
f  9/9/7 10/10/8 7/7/9
f  7/7/9 10/10/8 8/8/10
f  11/11/11 12/12/11 9/9/7
f  9/9/7 12/12/11 10/10/8
f  13/13/12 14/14/12 11/11/13
f  11/11/13 14/14/12 12/12/13
f  15/15/14 16/16/14 13/13/15
f  13/13/15 16/16/14 14/14/15
f  17/17/16 18/18/16 15/15/14
f  15/15/14 18/18/16 16/16/14
f  19/19/17 20/20/17 17/17/18
f  17/17/18 20/20/17 18/18/18
f  21/21/19 22/22/20 19/19/17
f  19/19/17 22/22/20 20/20/17
f  23/23/21 24/24/21 21/21/19
f  22/22/20 21/21/19 24/24/21
f  1/25/22 25/26/22 4/27/22
f  25/26/22 1/25/22 26/28/22
f  6/29/23 27/30/23 1/25/24
f  1/25/24 27/30/23 26/28/24
f  8/31/25 28/32/25 6/29/25
f  6/29/25 28/32/25 27/30/25
f  10/33/26 29/34/26 8/31/27
f  8/31/27 29/34/26 28/32/27
f  12/35/28 30/36/28 10/33/26
f  10/33/26 30/36/28 29/34/26
f  14/37/29 30/36/30 12/35/30
f  30/36/30 14/37/29 31/38/29
f  16/39/31 32/40/31 14/37/32
f  14/37/32 32/40/31 31/38/32
f  18/41/33 33/42/33 16/39/31
f  16/39/31 33/42/33 32/40/31
f  20/43/34 33/42/35 18/41/35
f  33/42/35 20/43/34 34/44/34
f  22/45/36 35/46/36 20/43/34
f  20/43/34 35/46/36 34/44/34
f  24/47/37 35/46/36 22/45/36
f  35/46/36 24/47/37 36/48/37
f  37/49/38 25/50/39 26/51/38
f  25/50/39 37/49/38 38/52/39
f  27/53/40 39/54/40 26/51/40
f  26/51/40 39/54/40 37/49/40
f  28/55/41 39/54/42 27/53/42
f  39/54/42 28/55/41 40/56/41
f  29/57/43 41/58/43 28/55/44
f  28/55/44 41/58/43 40/56/44
f  30/59/45 42/60/45 29/57/43
f  29/57/43 42/60/45 41/58/43
f  31/61/46 43/62/46 30/59/47
f  30/59/47 43/62/46 42/60/47
f  32/63/48 44/64/48 31/61/49
f  31/61/49 44/64/48 43/62/49
f  33/65/50 45/66/50 32/63/48
f  32/63/48 45/66/50 44/64/48
f  34/67/51 46/68/51 33/65/52
f  33/65/52 46/68/51 45/66/52
f  35/69/53 47/70/54 34/67/51
f  34/67/51 47/70/54 46/68/51
f  36/71/55 48/72/55 35/69/53
f  47/70/54 35/69/53 48/72/55
f  37/73/56 2/74/56 38/75/56
f  2/74/56 37/73/56 3/76/56
f  5/77/57 37/73/58 39/78/57
f  37/73/58 5/77/57 3/76/58
f  40/79/59 5/77/59 39/78/60
f  5/77/59 40/79/59 7/80/61
f  9/81/62 40/79/63 41/82/64
f  40/79/63 9/81/62 7/80/65
f  11/83/66 41/82/64 42/84/66
f  41/82/64 11/83/66 9/81/62
f  43/85/67 11/83/68 42/84/68
f  11/83/68 43/85/67 13/86/67
f  15/87/69 43/85/70 44/88/69
f  43/85/70 15/87/69 13/86/70
f  17/89/71 44/88/69 45/90/71
f  44/88/69 17/89/71 15/87/69
f  46/91/72 17/89/73 45/90/73
f  17/89/73 46/91/72 19/92/72
f  21/93/74 46/91/72 47/94/74
f  46/91/72 21/93/74 19/92/72
f  48/95/75 21/93/74 47/94/74
f  21/93/74 48/95/75 23/96/75
f  2/97/76 4/98/76 25/99/76
f  2/97/76 25/99/76 38/100/76

